#N canvas -37 0 1920 988 10;
#X obj 220 152 r \$0/to-websocket;
#X obj 342 245 tgl 15 0 empty empty connected 17 7 0 10 -262144 -1
-1 0 1;
#X text 219 127 browser connection;
#X obj 334 459 print toRack;
#X obj 261 899 dac~ 1 2 3 4 5 6;
#X obj 801 446 adc~ 1 2 3 4 5 6;
#X obj 805 112 route K1 K2 K3 K4 K5 K6;
#X obj 963 156 route S1 S2 S3 S4 S5 S6;
#X text 983 110 knobs;
#X text 1138 154 buttons;
#X msg 805 377 display this text will print;
#X obj 805 75 r fromRack;
#X obj 801 417 print toRack;
#X text 1014 376 to the display;
#X text 890 75 receiving control data from VCV Prototype module;
#X text 898 418 sending control data from VCV Prototype module;
#X text 927 451 receiving audio from VCV Prototype module;
#X text 387 899 sending audio to VCV Prototype module;
#X obj 220 175 websocket-server 9001;
#X obj 792 665 snapshot~;
#X obj 693 433 loadbang;
#X obj 865 660 snapshot~;
#X obj 336 330 sel 0 1;
#X msg 227 386 display Not connected to port 9001;
#X msg 464 385 display Connected to port 9001;
#X obj 936 657 snapshot~;
#X obj 999 658 snapshot~;
#X obj 1080 658 snapshot~;
#X obj 1153 660 snapshot~;
#X obj 920 844 s \$0/to-websocket;
#X obj 486 205 loadbang;
#X obj 338 292 int 0;
#X obj 481 251 metro 1000;
#X obj 794 696 change 0;
#X obj 698 576 t f f;
#X obj 696 519 int;
#X obj 759 507 + 1;
#X obj 760 542 % 6;
#X obj 693 480 metro 10;
#X obj 918 596 sel 0 1 2 3 4 5;
#X obj 871 700 change 0;
#X obj 932 699 change 0;
#X obj 1006 696 change 0;
#X obj 1078 697 change 0;
#X obj 1161 691 change 0;
#X msg 794 728 in1 \$1;
#X msg 876 734 in2 \$1;
#X msg 935 731 in3 \$1;
#X msg 1012 735 in4 \$1;
#X msg 1093 735 in5 \$1;
#X msg 1174 731 in6 \$1;
#X obj 209 656 route out1 out2 out3 out4 out5 out6;
#X obj 796 227 sel 1;
#X connect 0 0 18 0;
#X connect 1 0 31 0;
#X connect 5 0 19 0;
#X connect 5 1 21 0;
#X connect 5 2 25 0;
#X connect 5 3 26 0;
#X connect 5 4 27 0;
#X connect 5 5 28 0;
#X connect 6 6 7 0;
#X connect 7 0 52 0;
#X connect 10 0 12 0;
#X connect 11 0 6 0;
#X connect 18 0 51 0;
#X connect 18 1 1 0;
#X connect 19 0 33 0;
#X connect 20 0 38 0;
#X connect 21 0 40 0;
#X connect 22 0 23 0;
#X connect 22 1 24 0;
#X connect 23 0 3 0;
#X connect 24 0 3 0;
#X connect 25 0 41 0;
#X connect 26 0 42 0;
#X connect 27 0 43 0;
#X connect 28 0 44 0;
#X connect 30 0 32 0;
#X connect 31 0 22 0;
#X connect 32 0 31 0;
#X connect 33 0 45 0;
#X connect 34 0 39 0;
#X connect 34 1 36 0;
#X connect 35 0 34 0;
#X connect 36 0 37 0;
#X connect 37 0 35 1;
#X connect 38 0 35 0;
#X connect 39 0 19 0;
#X connect 39 1 21 0;
#X connect 39 2 25 0;
#X connect 39 3 26 0;
#X connect 39 4 27 0;
#X connect 39 5 28 0;
#X connect 40 0 46 0;
#X connect 41 0 47 0;
#X connect 42 0 48 0;
#X connect 43 0 49 0;
#X connect 44 0 50 0;
#X connect 45 0 29 0;
#X connect 46 0 29 0;
#X connect 47 0 29 0;
#X connect 48 0 29 0;
#X connect 49 0 29 0;
#X connect 50 0 29 0;
#X connect 51 0 4 0;
#X connect 51 1 4 1;
#X connect 51 2 4 2;
#X connect 51 3 4 3;
#X connect 51 4 4 4;
#X connect 51 5 4 5;
#X connect 52 0 18 2;
