#N canvas 267 74 1920 988 10;
#X obj 220 152 r \$0/to-websocket;
#X obj 342 245 tgl 15 0 empty empty connected 17 7 0 10 -262144 -1
-1 0 1;
#X obj 220 228 s;
#N canvas 2 50 450 300 messages-to-local 0;
#X obj 14 15 inlet;
#X obj 14 256 outlet;
#X obj 269 258 outlet;
#X obj 14 120 list;
#X obj 14 91 t b a;
#X obj 14 233 list trim;
#X obj 269 212 list trim;
#X obj 14 68 list split 1;
#X obj 269 235 symbol;
#X connect 0 0 7 0;
#X connect 3 0 5 0;
#X connect 4 0 3 0;
#X connect 4 1 6 0;
#X connect 5 0 1 0;
#X connect 6 0 8 0;
#X connect 7 0 4 0;
#X connect 7 1 3 1;
#X connect 8 0 2 0;
#X restore 220 198 pd messages-to-local;
#X text 219 127 browser connection;
#X obj 334 459 print toRack;
#X obj 854 906 dac~ 1 2 3 4 5 6;
#X obj 801 446 adc~ 1 2 3 4 5 6;
#X obj 805 112 route K1 K2 K3 K4 K5 K6;
#X obj 963 156 route S1 S2 S3 S4 S5 S6;
#X text 983 110 knobs;
#X text 1138 154 buttons;
#X msg 805 377 display this text will print;
#X obj 805 75 r fromRack;
#X obj 801 417 print toRack;
#X text 1014 376 to the display;
#X text 890 75 receiving control data from VCV Prototype module;
#X text 898 418 sending control data from VCV Prototype module;
#X text 927 451 receiving audio from VCV Prototype module;
#X text 980 906 sending audio to VCV Prototype module;
#X obj 220 175 websocket-server 9001;
#X obj 792 665 snapshot~;
#X obj 693 553 metro 100;
#X obj 693 506 loadbang;
#X obj 865 660 snapshot~;
#X obj 692 593 t b b b b b b;
#X obj 336 330 sel 0 1;
#X msg 227 386 display Not connected to port 9001;
#X msg 464 385 display Connected to port 9001;
#X obj 936 657 snapshot~;
#X obj 1009 657 snapshot~;
#X obj 1080 658 snapshot~;
#X obj 1153 660 snapshot~;
#X obj 931 825 s \$0/to-websocket;
#X msg 931 787 rack \$1 \$2 \$3 \$4 \$5 \$6;
#X obj 931 743 pack 0 0 0 0 0 0;
#X obj 486 205 loadbang;
#X obj 338 292 int 0;
#X obj 481 251 metro 1000;
#X connect 0 0 20 0;
#X connect 1 0 37 0;
#X connect 3 0 2 0;
#X connect 3 1 2 1;
#X connect 7 0 21 0;
#X connect 7 1 24 0;
#X connect 7 2 29 0;
#X connect 7 3 30 0;
#X connect 7 4 31 0;
#X connect 7 5 32 0;
#X connect 8 6 9 0;
#X connect 12 0 14 0;
#X connect 13 0 8 0;
#X connect 20 0 3 0;
#X connect 20 1 1 0;
#X connect 21 0 35 0;
#X connect 22 0 25 0;
#X connect 23 0 22 0;
#X connect 24 0 35 1;
#X connect 25 0 21 0;
#X connect 25 1 24 0;
#X connect 25 2 29 0;
#X connect 25 3 30 0;
#X connect 25 4 31 0;
#X connect 25 5 32 0;
#X connect 26 0 27 0;
#X connect 26 1 28 0;
#X connect 27 0 5 0;
#X connect 28 0 5 0;
#X connect 29 0 35 2;
#X connect 30 0 35 3;
#X connect 31 0 35 4;
#X connect 32 0 35 5;
#X connect 34 0 33 0;
#X connect 35 0 34 0;
#X connect 36 0 38 0;
#X connect 37 0 26 0;
#X connect 38 0 37 0;
