{
  "version": "1.1.6",
  "modules": [
    {
      "id": 1,
      "plugin": "Core",
      "version": "1.1.6",
      "model": "AudioInterface",
      "params": [],
      "leftModuleId": 7,
      "data": {
        "audio": {
          "driver": 8,
          "deviceName": "Default Device",
          "offset": 0,
          "maxChannels": 8,
          "sampleRate": 44100,
          "blockSize": 256
        }
      },
      "pos": [
        105,
        1
      ]
    },
    {
      "id": 2,
      "plugin": "Fundamental",
      "version": "1.4.0",
      "model": "VCMixer",
      "params": [
        {
          "id": 0,
          "value": 0.0
        },
        {
          "id": 1,
          "value": 0.989948869
        },
        {
          "id": 2,
          "value": 1.0
        },
        {
          "id": 3,
          "value": 1.0
        },
        {
          "id": 4,
          "value": 1.0
        }
      ],
      "rightModuleId": 7,
      "pos": [
        82,
        1
      ]
    },
    {
      "id": 7,
      "plugin": "Fundamental",
      "version": "1.4.0",
      "model": "Scope",
      "params": [
        {
          "id": 0,
          "value": 0.0
        },
        {
          "id": 1,
          "value": 0.0
        },
        {
          "id": 2,
          "value": 0.0
        },
        {
          "id": 3,
          "value": 0.0
        },
        {
          "id": 4,
          "value": 14.0
        },
        {
          "id": 5,
          "value": 0.0
        },
        {
          "id": 6,
          "value": 0.0
        },
        {
          "id": 7,
          "value": 0.0
        }
      ],
      "leftModuleId": 2,
      "rightModuleId": 1,
      "data": {
        "lissajous": 0,
        "external": 0
      },
      "pos": [
        92,
        1
      ]
    },
    {
      "id": 144,
      "plugin": "VCV-Prototype",
      "version": "1.3.0",
      "model": "Prototype",
      "params": [
        {
          "id": 0,
          "value": 0.5
        },
        {
          "id": 1,
          "value": 0.5
        },
        {
          "id": 2,
          "value": 0.5
        },
        {
          "id": 3,
          "value": 0.5
        },
        {
          "id": 4,
          "value": 0.5
        },
        {
          "id": 5,
          "value": 0.5
        },
        {
          "id": 6,
          "value": 0.0
        },
        {
          "id": 7,
          "value": 0.0
        },
        {
          "id": 8,
          "value": 0.0
        },
        {
          "id": 9,
          "value": 0.0
        },
        {
          "id": 10,
          "value": 0.0
        },
        {
          "id": 11,
          "value": 0.0
        }
      ],
      "data": {
        "path": "C:\\Users\\tofredericks\\Desktop\\VCVRack-WebSocket-PD\\VCV Rack WebSocket.pd",
        "script": "#N canvas 267 74 1920 988 10;\n#X obj 220 152 r \\$0/to-websocket;\n#X obj 342 245 tgl 15 0 empty empty connected 17 7 0 10 -262144 -1\n-1 0 1;\n#X obj 220 228 s;\n#N canvas 2 50 450 300 messages-to-local 0;\n#X obj 14 15 inlet;\n#X obj 14 256 outlet;\n#X obj 269 258 outlet;\n#X obj 14 120 list;\n#X obj 14 91 t b a;\n#X obj 14 233 list trim;\n#X obj 269 212 list trim;\n#X obj 14 68 list split 1;\n#X obj 269 235 symbol;\n#X connect 0 0 7 0;\n#X connect 3 0 5 0;\n#X connect 4 0 3 0;\n#X connect 4 1 6 0;\n#X connect 5 0 1 0;\n#X connect 6 0 8 0;\n#X connect 7 0 4 0;\n#X connect 7 1 3 1;\n#X connect 8 0 2 0;\n#X restore 220 198 pd messages-to-local;\n#X text 219 127 browser connection;\n#X obj 334 459 print toRack;\n#X obj 854 906 dac~ 1 2 3 4 5 6;\n#X obj 801 446 adc~ 1 2 3 4 5 6;\n#X obj 805 112 route K1 K2 K3 K4 K5 K6;\n#X obj 963 156 route S1 S2 S3 S4 S5 S6;\n#X text 983 110 knobs;\n#X text 1138 154 buttons;\n#X msg 805 377 display this text will print;\n#X obj 805 75 r fromRack;\n#X obj 801 417 print toRack;\n#X text 1014 376 to the display;\n#X text 890 75 receiving control data from VCV Prototype module;\n#X text 898 418 sending control data from VCV Prototype module;\n#X text 927 451 receiving audio from VCV Prototype module;\n#X text 980 906 sending audio to VCV Prototype module;\n#X obj 220 175 websocket-server 9001;\n#X obj 792 665 snapshot~;\n#X obj 693 553 metro 100;\n#X obj 693 506 loadbang;\n#X obj 865 660 snapshot~;\n#X obj 692 593 t b b b b b b;\n#X obj 336 330 sel 0 1;\n#X msg 227 386 display Not connected to port 9001;\n#X msg 464 385 display Connected to port 9001;\n#X obj 936 657 snapshot~;\n#X obj 1009 657 snapshot~;\n#X obj 1080 658 snapshot~;\n#X obj 1153 660 snapshot~;\n#X obj 931 825 s \\$0/to-websocket;\n#X msg 931 787 rack \\$1 \\$2 \\$3 \\$4 \\$5 \\$6;\n#X obj 931 743 pack 0 0 0 0 0 0;\n#X obj 486 205 loadbang;\n#X obj 338 292 int 0;\n#X obj 481 251 metro 1000;\n#X connect 0 0 20 0;\n#X connect 1 0 37 0;\n#X connect 3 0 2 0;\n#X connect 3 1 2 1;\n#X connect 7 0 21 0;\n#X connect 7 1 24 0;\n#X connect 7 2 29 0;\n#X connect 7 3 30 0;\n#X connect 7 4 31 0;\n#X connect 7 5 32 0;\n#X connect 8 6 9 0;\n#X connect 12 0 14 0;\n#X connect 13 0 8 0;\n#X connect 20 0 3 0;\n#X connect 20 1 1 0;\n#X connect 21 0 35 0;\n#X connect 22 0 25 0;\n#X connect 23 0 22 0;\n#X connect 24 0 35 1;\n#X connect 25 0 21 0;\n#X connect 25 1 24 0;\n#X connect 25 2 29 0;\n#X connect 25 3 30 0;\n#X connect 25 4 31 0;\n#X connect 25 5 32 0;\n#X connect 26 0 27 0;\n#X connect 26 1 28 0;\n#X connect 27 0 5 0;\n#X connect 28 0 5 0;\n#X connect 29 0 35 2;\n#X connect 30 0 35 3;\n#X connect 31 0 35 4;\n#X connect 32 0 35 5;\n#X connect 34 0 33 0;\n#X connect 35 0 34 0;\n#X connect 36 0 38 0;\n#X connect 37 0 26 0;\n#X connect 38 0 37 0;\n"
      },
      "pos": [
        45,
        0
      ]
    },
    {
      "id": 145,
      "plugin": "Fundamental",
      "version": "1.4.0",
      "model": "LFO",
      "params": [
        {
          "id": 0,
          "value": 1.0
        },
        {
          "id": 1,
          "value": 1.0
        },
        {
          "id": 2,
          "value": -0.674000144
        },
        {
          "id": 3,
          "value": 0.0
        },
        {
          "id": 4,
          "value": 0.0
        },
        {
          "id": 5,
          "value": 0.5
        },
        {
          "id": 6,
          "value": 0.0
        }
      ],
      "pos": [
        5,
        0
      ]
    },
    {
      "id": 146,
      "plugin": "Fundamental",
      "version": "1.4.0",
      "model": "LFO",
      "params": [
        {
          "id": 0,
          "value": 1.0
        },
        {
          "id": 1,
          "value": 1.0
        },
        {
          "id": 2,
          "value": -3.72499824
        },
        {
          "id": 3,
          "value": 0.0
        },
        {
          "id": 4,
          "value": 0.0
        },
        {
          "id": 5,
          "value": 0.5
        },
        {
          "id": 6,
          "value": 0.0
        }
      ],
      "pos": [
        18,
        0
      ]
    },
    {
      "id": 147,
      "plugin": "Fundamental",
      "version": "1.4.0",
      "model": "Noise",
      "params": [],
      "pos": [
        63,
        0
      ]
    },
    {
      "id": 148,
      "plugin": "Fundamental",
      "version": "1.4.0",
      "model": "Random",
      "params": [
        {
          "id": 0,
          "value": 1.0
        },
        {
          "id": 1,
          "value": 0.5
        },
        {
          "id": 2,
          "value": 1.0
        },
        {
          "id": 3,
          "value": 1.0
        }
      ],
      "pos": [
        33,
        0
      ]
    },
    {
      "id": 149,
      "plugin": "Fundamental",
      "version": "1.4.0",
      "model": "Scope",
      "params": [
        {
          "id": 0,
          "value": 0.0
        },
        {
          "id": 1,
          "value": 0.0
        },
        {
          "id": 2,
          "value": 0.0
        },
        {
          "id": 3,
          "value": 0.0
        },
        {
          "id": 4,
          "value": 14.0
        },
        {
          "id": 5,
          "value": 0.0
        },
        {
          "id": 6,
          "value": 0.0
        },
        {
          "id": 7,
          "value": 0.0
        }
      ],
      "rightModuleId": 150,
      "data": {
        "lissajous": 0,
        "external": 0
      },
      "pos": [
        0,
        1
      ]
    },
    {
      "id": 150,
      "plugin": "Fundamental",
      "version": "1.4.0",
      "model": "Scope",
      "params": [
        {
          "id": 0,
          "value": 0.0
        },
        {
          "id": 1,
          "value": 0.0
        },
        {
          "id": 2,
          "value": 0.0
        },
        {
          "id": 3,
          "value": 0.0
        },
        {
          "id": 4,
          "value": 14.0
        },
        {
          "id": 5,
          "value": 0.0
        },
        {
          "id": 6,
          "value": 0.0
        },
        {
          "id": 7,
          "value": 0.0
        }
      ],
      "leftModuleId": 149,
      "rightModuleId": 151,
      "data": {
        "lissajous": 0,
        "external": 0
      },
      "pos": [
        13,
        1
      ]
    },
    {
      "id": 151,
      "plugin": "Fundamental",
      "version": "1.4.0",
      "model": "Scope",
      "params": [
        {
          "id": 0,
          "value": 0.0
        },
        {
          "id": 1,
          "value": 0.0
        },
        {
          "id": 2,
          "value": 0.0
        },
        {
          "id": 3,
          "value": 0.0
        },
        {
          "id": 4,
          "value": 14.0
        },
        {
          "id": 5,
          "value": 0.0
        },
        {
          "id": 6,
          "value": 0.0
        },
        {
          "id": 7,
          "value": 0.0
        }
      ],
      "leftModuleId": 150,
      "rightModuleId": 152,
      "data": {
        "lissajous": 0,
        "external": 0
      },
      "pos": [
        26,
        1
      ]
    },
    {
      "id": 152,
      "plugin": "Fundamental",
      "version": "1.4.0",
      "model": "Scope",
      "params": [
        {
          "id": 0,
          "value": 0.0
        },
        {
          "id": 1,
          "value": 0.0
        },
        {
          "id": 2,
          "value": 0.0
        },
        {
          "id": 3,
          "value": 0.0
        },
        {
          "id": 4,
          "value": 14.0
        },
        {
          "id": 5,
          "value": 0.0
        },
        {
          "id": 6,
          "value": 0.0
        },
        {
          "id": 7,
          "value": 0.0
        }
      ],
      "leftModuleId": 151,
      "rightModuleId": 153,
      "data": {
        "lissajous": 0,
        "external": 0
      },
      "pos": [
        39,
        1
      ]
    },
    {
      "id": 153,
      "plugin": "Fundamental",
      "version": "1.4.0",
      "model": "Scope",
      "params": [
        {
          "id": 0,
          "value": 0.0
        },
        {
          "id": 1,
          "value": 0.0
        },
        {
          "id": 2,
          "value": 0.0
        },
        {
          "id": 3,
          "value": 0.0
        },
        {
          "id": 4,
          "value": 14.0
        },
        {
          "id": 5,
          "value": 0.0
        },
        {
          "id": 6,
          "value": 0.0
        },
        {
          "id": 7,
          "value": 0.0
        }
      ],
      "leftModuleId": 152,
      "rightModuleId": 154,
      "data": {
        "lissajous": 0,
        "external": 0
      },
      "pos": [
        52,
        1
      ]
    },
    {
      "id": 154,
      "plugin": "Fundamental",
      "version": "1.4.0",
      "model": "Scope",
      "params": [
        {
          "id": 0,
          "value": 0.0
        },
        {
          "id": 1,
          "value": 0.0
        },
        {
          "id": 2,
          "value": 0.0
        },
        {
          "id": 3,
          "value": 0.0
        },
        {
          "id": 4,
          "value": 14.0
        },
        {
          "id": 5,
          "value": 0.0
        },
        {
          "id": 6,
          "value": 0.0
        },
        {
          "id": 7,
          "value": 0.0
        }
      ],
      "leftModuleId": 153,
      "data": {
        "lissajous": 0,
        "external": 0
      },
      "pos": [
        65,
        1
      ]
    }
  ],
  "cables": [
    {
      "id": 296,
      "outputModuleId": 2,
      "outputId": 0,
      "inputModuleId": 1,
      "inputId": 0,
      "color": "#0986ad"
    },
    {
      "id": 297,
      "outputModuleId": 2,
      "outputId": 0,
      "inputModuleId": 1,
      "inputId": 1,
      "color": "#c9b70e"
    },
    {
      "id": 304,
      "outputModuleId": 2,
      "outputId": 0,
      "inputModuleId": 7,
      "inputId": 0,
      "color": "#0c8e15"
    },
    {
      "id": 356,
      "outputModuleId": 145,
      "outputId": 0,
      "inputModuleId": 144,
      "inputId": 0,
      "color": "#c91847"
    },
    {
      "id": 357,
      "outputModuleId": 146,
      "outputId": 0,
      "inputModuleId": 144,
      "inputId": 1,
      "color": "#0986ad"
    },
    {
      "id": 358,
      "outputModuleId": 147,
      "outputId": 0,
      "inputModuleId": 144,
      "inputId": 4,
      "color": "#c9b70e"
    },
    {
      "id": 359,
      "outputModuleId": 147,
      "outputId": 1,
      "inputModuleId": 144,
      "inputId": 5,
      "color": "#0c8e15"
    },
    {
      "id": 360,
      "outputModuleId": 148,
      "outputId": 2,
      "inputModuleId": 144,
      "inputId": 2,
      "color": "#c91847"
    },
    {
      "id": 361,
      "outputModuleId": 148,
      "outputId": 0,
      "inputModuleId": 144,
      "inputId": 3,
      "color": "#0986ad"
    },
    {
      "id": 362,
      "outputModuleId": 144,
      "outputId": 0,
      "inputModuleId": 149,
      "inputId": 0,
      "color": "#c9b70e"
    },
    {
      "id": 363,
      "outputModuleId": 144,
      "outputId": 1,
      "inputModuleId": 150,
      "inputId": 0,
      "color": "#0c8e15"
    },
    {
      "id": 364,
      "outputModuleId": 144,
      "outputId": 2,
      "inputModuleId": 151,
      "inputId": 0,
      "color": "#c91847"
    },
    {
      "id": 365,
      "outputModuleId": 144,
      "outputId": 3,
      "inputModuleId": 152,
      "inputId": 0,
      "color": "#0986ad"
    },
    {
      "id": 366,
      "outputModuleId": 144,
      "outputId": 4,
      "inputModuleId": 153,
      "inputId": 0,
      "color": "#c9b70e"
    },
    {
      "id": 367,
      "outputModuleId": 144,
      "outputId": 5,
      "inputModuleId": 154,
      "inputId": 0,
      "color": "#0c8e15"
    }
  ]
}